<?xml version="1.0" standalone="no"?>
<!DOCTYPE svg PUBLIC "-//W3C//DTD SVG 20010904//EN"
 "http://www.w3.org/TR/2001/REC-SVG-20010904/DTD/svg10.dtd">
<svg version="1.0" xmlns="http://www.w3.org/2000/svg"
 width="86.000000pt" height="79.000000pt" viewBox="0 0 86.000000 79.000000"
 preserveAspectRatio="xMidYMid meet">

<g transform="translate(0.000000,79.000000) scale(0.100000,-0.100000)"
fill="#000000" stroke="none">
<path d="M291 468 c-5 -13 -23 -58 -40 -101 -17 -43 -31 -82 -31 -87 0 -21 37
-9 48 15 10 21 18 25 57 25 39 0 47 -3 55 -25 9 -23 50 -37 50 -17 0 4 -18 53
-41 110 -36 90 -44 102 -65 102 -16 0 -28 -8 -33 -22z m57 -104 c-4 -3 -17 -4
-30 -2 -24 3 -24 4 -10 38 l14 35 16 -32 c9 -18 13 -35 10 -39z"/>
<path d="M466 411 c-15 -17 -15 -19 -1 -25 9 -3 25 -1 36 4 19 11 39 6 39 -9
0 -4 -19 -11 -42 -17 -37 -8 -43 -13 -46 -37 -5 -44 12 -57 79 -56 l59 1 0 57
c0 74 -18 101 -69 101 -24 0 -44 -7 -55 -19z m77 -78 c11 -10 -13 -33 -34 -33
-21 0 -26 26 -6 33 18 8 33 8 40 0z"/>
</g>
</svg>
